<svg class="craft" xmlns="http://www.w3.org/2000/svg" viewBox="0 0 100 100" width="100" height="100">

	<filter id="ka-invert">
		<feColorMatrix type="matrix" values="0 0 0 0 0 0 0 0 0 0 0 0 0 0 0 0 0 0 1 0" />
	</filter>

	<mask id="myMask">
		<rect width="100%" height="100%" fill="white" />
		<text x="47.5%" y="48%" fill="white" font-size="45" font-family="sans-serif" font-weight="bolder" text-anchor="middle" alignment-baseline="middle" style="letter-spacing:-2; text-transform: uppercase;" filter="url(#ka-invert)">CB</text>
	</mask>

	<g transform="translate(0, 5) scale(1.051 1.051)" fill="white">
		<path mask="url(#myMask)" d="M64.2319142,0 L30.7673781,0 C25.7538222,0 21.1200812,2.67484601 18.6133033,7.01802871 L1.88056046,35.9988506 C-0.627167019,40.3410837 -0.627167019,45.6917253 1.88056046,50.0339584 L18.6133033,79.0157298 C21.1200812,83.357963 25.7538222,86.0318595 30.7673781,86.0318595 L64.2319142,86.0318595 C69.2464196,86.0318595 73.8792111,83.357963 76.3869386,79.0157298 L93.1196814,50.0339584 C95.6264593,45.6917253 95.6264593,40.3410837 93.1196814,35.9988506 L76.3869386,7.01802871 C73.8792111,2.67484601 69.2464196,0 64.2319142,0"></path>
	</g>

</svg>