<?xml version="1.0" encoding="UTF-8"?>
<svg id="Layer_1" data-name="Layer 1" xmlns="http://www.w3.org/2000/svg" viewBox="0 0 34.05 33.29">
  <defs>
    <style>
      .cls-1 {
        fill: #fff;
      }
    </style>
  </defs>
  <path class="cls-1" d="M17.21,17.95c-.15,0-.31-.04-.45-.11L1.76,10.35c-.34-.17-.55-.52-.55-.89s.21-.73,.55-.89L16.76,1.06c.28-.14,.61-.14,.89,0l15,7.5c.34,.17,.55,.52,.55,.89s-.21,.73-.55,.89l-15,7.5c-.14,.07-.29,.11-.45,.11ZM4.45,9.45l12.76,6.38,12.76-6.38L17.21,3.07,4.45,9.45Z"/>
  <path class="cls-1" d="M17.21,32.95c-.15,0-.31-.04-.45-.11L1.76,25.35c-.49-.25-.69-.85-.45-1.34,.25-.49,.85-.69,1.34-.45l14.55,7.28,14.55-7.28c.49-.25,1.09-.05,1.34,.45,.25,.49,.05,1.09-.45,1.34l-15,7.5c-.14,.07-.29,.11-.45,.11Z"/>
  <path class="cls-1" d="M17.21,25.45c-.15,0-.31-.04-.45-.11L1.76,17.85c-.49-.25-.69-.85-.45-1.34,.25-.49,.85-.69,1.34-.45l14.55,7.28,14.55-7.28c.49-.25,1.09-.05,1.34,.45,.25,.49,.05,1.09-.45,1.34l-15,7.5c-.14,.07-.29,.11-.45,.11Z"/>
</svg>